<svg xmlns="http://www.w3.org/2000/svg" width="786.718" height="769.878"><path transform="translate(448.62 142.738)" d="M-248.498 141.645c68.371 108.932 292.78 212.795 418.204 54.548 92.298-153.914 35.784-219.4 1.248-261.565-22.05-26.92-73.42-55.466-94.182-67.745-47.468-8.1-106.134 6.195-169.706 30.305-256.438 138.978-136.817 219.73-155.564 244.457z" style="fill:#fff;stroke:#000;stroke-width:1px;stroke-linecap:butt;stroke-linejoin:miter;stroke-opacity:1"/><path d="M118.507 701.871c-2.79-2.786-20.121-37.19-29.344-58.25-13.506-30.84-24.186-60.685-35.07-98-7.896-27.077-11.196-40.435-15.933-64.5-6.253-31.767-7.034-36.882-8.707-57-2.673-32.143-5.379-60.84-6.054-64.207-.738-3.679-2.376-4.344-26.41-10.724-7.426-1.972-22.157-6.359-32.737-9.75l-19.236-6.165-13.764 4.321c-7.57 2.377-23.889 7.868-36.264 12.202-63.765 22.332-102.036 41.204-122.034 60.176-4.144 3.93-11.995 11.153-17.447 16.05-26.836 24.103-44.3 49.232-59.836 86.097-16.459 39.056-19.6 46.677-22.162 53.774-1.543 4.276-2.601 7.98-2.35 8.23.25.25 9.202 1.155 19.892 2.011l19.437 1.556 19.491 19.459 19.491 19.459-4.205 4.205-4.205 4.205-13.348-13.95c-7.342-7.672-15.02-15.817-17.063-18.1-4.079-4.558-2.072-4.08-25.032-5.961l-7.87-.645 3.593 6.426c5.863 10.485 6.757 14.056 7.566 30.236.869 17.37-.44 15.322 15.885 24.858 5.667 3.31 10.118 6.517 9.892 7.127-.227.61-1.016 2.798-1.754 4.86-.739 2.063-1.717 3.75-2.175 3.75-3.306 0-21.734-11.76-30.13-19.226l-4.863-4.325 1-12.116c.549-6.663.665-13.94.257-16.169-.785-4.296-8.2-18.102-11.16-20.781-1.631-1.477-2.102-1.243-6.573 3.263-2.65 2.67-6.45 6.88-8.447 9.354l-3.63 4.5 1.413 9.444c2.96 19.776 6.21 28.635 14.559 39.694 4.346 5.756 4.398 7.671.292 10.652-3.086 2.24-5.025 1.342-9.8-4.539-6.947-8.557-12.762-22.572-15.234-36.715-.813-4.656-1.953-8.93-2.532-9.5-3.015-2.966-6.105 8.647-8.376 31.481-.847 8.516-2.016 17.197-2.599 19.292-.973 3.503-1.316 3.784-4.25 3.5-3.144-.304-3.204-.409-3.927-6.809-1.01-8.934.055-31.223 1.839-38.475 2.223-9.042 5.513-13.722 20.426-29.056 7.516-7.729 14.83-15.834 16.255-18.01 2.112-3.228 7.841-17.492 16.451-40.959 2.863-7.804 13.588-33.236 18.555-44 14.684-31.822 28.158-51.133 51.314-73.543 23.015-22.274 38.672-33.043 71.894-49.447 29.55-14.59 57.605-25.78 100-39.882 11.086-3.688 14.336-5.131 13.471-5.982-.259-.254-5.87-3.47-12.47-7.143-31.394-17.477-62.393-42.975-78.874-64.876-13.626-18.107-28.025-48.493-32.155-67.854-2.623-12.298-3.868-33.347-2.653-44.863 3.113-29.514 19.246-56.186 55.307-91.44 38.471-37.608 84.283-67.531 137.114-89.56 6.743-2.811 12.427-5.27 12.63-5.465.205-.194-2.13-3.161-5.188-6.594-3.057-3.432-5.361-6.56-5.12-6.952.243-.391 2.412-1.383 4.821-2.204l4.38-1.493 4.72 4.334c8.56 7.857 9.653 8.086 25.94 5.412 9.577-1.573 18.477-2.333 27.84-2.38 13.644-.067 13.782-.09 16-2.732 3.768-4.488 8.404-6.174 18.237-6.632 11.08-.516 21.794 1.373 39.033 6.884 17.56 5.614 34.21 12.825 47.604 20.617 6.25 3.636 13.5 7.721 16.11 9.079l4.747 2.468 10.44-1.626c12.904-2.01 25.566-2.182 25.566-.348 0 2.188-3.027 5.722-4.902 5.722-.983 0-2.602.9-3.598 2-1.136 1.256-3.08 2-5.22 2-1.877 0-4.288.47-5.358 1.042-2.885 1.544-1.531 3.432 13.99 19.499 16.903 17.497 24.935 28.65 34.899 48.46 14.445 28.718 16.6 39.446 15.874 79-.493 26.838-1.378 35.384-5.756 55.594-6.185 28.545-20.589 63.189-35.641 85.721-21.092 31.574-47.482 54.75-80.501 70.696-26.389 12.744-52.41 18.961-85.917 20.527-7.354.344-13.943.803-14.642 1.02-2.425.754 15.013 32.827 31.502 57.941 20.782 31.654 39.509 54.737 62.892 77.523 21.98 21.417 40.222 34.419 65.878 46.951 24.605 12.019 41.062 16.738 90.676 26.001 17.778 3.32 36.15 7.2 40.824 8.625 20.19 6.151 30.535 14.546 38.969 31.62 5.828 11.8 6.463 15.444 7.496 43.03l.628 16.75h-11.816l-.547-19.25c-.429-15.067-1.005-20.98-2.652-27.213-1.158-4.38-2.51-8.37-3.005-8.864-.534-.534-1.171 1.488-1.566 4.963-.989 8.722-5.328 39.13-6.394 44.81-.51 2.72-1.73 5.533-2.712 6.25-2.008 1.469-7.999 1.764-8.82.435-.296-.478.62-8.466 2.036-17.75 2.326-15.258 4.245-44.697 3.249-49.847-.302-1.562-1.027-.946-3.532 3-5.892 9.281-9.53 26.342-10.931 51.264l-.692 12.297-5.105-.297-5.106-.298.061-15c.1-24.24 5.908-46.585 14.884-57.252 1.405-1.67 2.555-3.303 2.555-3.629 0-.97-6.857-3.54-14.933-5.595-4.162-1.058-19.151-3.981-33.31-6.494-43.975-7.807-69.388-15.078-94.37-27.004-40.411-19.29-72.067-45.322-104.1-85.604-13.339-16.773-16.873-21.634-27.26-37.498-12.069-18.43-13.078-20.164-29.143-50.044L47.98 360.88l-6.093-1.199c-3.351-.66-6.204-1.055-6.34-.88-.437.57 3.19 40.842 4.888 54.277 13.503 106.805 36.261 183.294 80.312 269.93l10.99 21.613H126.5c-4.38 0-5.69-.45-7.992-2.75zM90.488 350.118c27.044-2.861 46.416-8.056 67.375-18.066 42.033-20.075 71.521-49.747 92.054-92.628 8.406-17.554 12.712-29.682 17.886-50.374 10.044-40.164 11.401-75.428 4.038-104.929-2.278-9.13-11.602-33.5-12.817-33.5-.443 0-1.567 1.162-2.498 2.583-6.139 9.368-15.873 15.69-26.133 16.972-7.842.98-18.245-1.712-31.155-8.063-19.452-9.57-32.168-21.003-39.355-35.386-3.157-6.317-4.978-14.007-4.128-17.435.295-1.194 1.336-3.319 2.312-4.722 1.709-2.457 1.702-2.667-.184-5.645l-1.958-3.094 4.281-3.692c2.355-2.03 8.895-5.909 14.532-8.618 5.638-2.71 10.25-5.525 10.25-6.256 0-1.781-15.891-10.487-31.37-17.184-29.388-12.716-63.63-18.654-63.63-11.035 0 3.927 20.94 28.196 28.5 33.033 7.033 4.498 8.363 6.906 5.752 10.417-2.87 3.858-5.302 3.695-12.29-.82-3.45-2.23-6.644-4.055-7.098-4.055-.865 0-1.391 1.95-2.25 8.332-1.985 14.77-17.556 28.181-39.093 33.67-24.084 6.138-60.07 4.895-82.592-2.854C-34.12 21.596-43.004 15.52-50.657 5.18c-3.229-4.363-5.54-6.56-6.902-6.56-4.205 0-29.056 16.538-50.953 33.907-14.619 11.596-46.018 42.646-54.196 53.593-7.941 10.63-15.589 23.503-20.015 33.69-3.231 7.437-3.685 9.572-4.319 20.31-.874 14.836.317 36.527 2.555 46.5 2.195 9.78 8.278 25.28 14.229 36.254 14.324 26.418 40.72 53.975 70.256 73.344 10.542 6.914 28.678 16.674 39.602 21.312l7.113 3.02 38.887-11.462c21.389-6.303 40.322-11.732 42.074-12.064 3.083-.583 3.288-.399 6.397 5.747 1.766 3.492 6.437 13.55 10.38 22.35 8.128 18.145 11.655 24.206 14.83 25.484 3.354 1.35 15.653 1.158 31.207-.488zm134.336-192.404c-7.489-2.41-11.932-5.259-16.76-10.744-5.45-6.19-7.541-10.9-12.14-27.328-2.172-7.763-5.11-16.402-6.526-19.198-3.61-7.126-11.228-14.375-18.858-17.945C144.03 70.093 77.314 70.912-7.938 84.692c-12.096 1.955-18.764 2.64-19.41 1.993-.542-.542-1.026-2.912-1.075-5.268l-.089-4.282 5-1.202c12.224-2.938 57.532-9.138 87-11.905 25.415-2.387 64.205-2.427 80-.081 16.41 2.437 22.579 4.123 32.485 8.882 16.679 8.014 24.968 19.694 31 43.678 4.993 19.864 8.68 25.283 20.195 29.683 7.418 2.835 9.017 5.126 7.193 10.312-1.157 3.291-2.535 3.466-9.537 1.212zm-81.336-42.512c-8.8-1.846-23.2-5.012-32-7.036-30.306-6.968-37.057-9.766-34.607-14.344.578-1.08 1.701-2.215 2.495-2.52 2.15-.824 12.27.81 36.432 5.883 54.957 11.54 55.98 11.893 52.93 18.286-1.807 3.787-6.132 3.74-25.25-.27zM-48.8 103.572c-5.928-2.628-8.166-7.678-8.175-18.45-.004-4.4.369-8.592.828-9.316.538-.85 2.39-1.203 5.234-1l4.401.315.739 7.5c.406 4.125 1.454 8.85 2.33 10.5 1.713 3.23 1.665 11.66-.069 12.098-.55.14-2.93-.602-5.288-1.647zm178.788-118.95c-4.675-1.636-8.612-2.98-8.75-2.987-.735-.04.016-3.004 1.705-6.723l1.91-4.21 8.425 2.848c13.625 4.606 14.238 5.215 11.184 11.12-1.933 3.74-3.661 3.734-14.474-.049zm-89.045 360.75c-.025-.688-1.13-3.276-2.455-5.75l-2.41-4.5-.045 5.083c-.025 2.795.255 5.383.622 5.75 1.155 1.155 4.335.722 4.288-.584zm-16.955-6.483c0-3.638-2.034-25.481-2.51-26.962-.279-.866-2.944-.496-9.687 1.345-14.994 4.093-37.892 11.344-41.16 13.034l-3.02 1.562 2.582 1.353c3.185 1.669 38.71 11.983 45.41 13.185 5.963 1.069 8.385.053 8.385-3.517zM235.195 57.014c3.46-1.79 12.793-10.19 12.793-11.516 0-1.121-6.664-3.877-9.375-3.877-1.172 0-4.336 1.568-7.03 3.484-6.49 4.613-10.23 5.253-15.37 2.631-5.146-2.625-8.083-6.375-8.876-11.333-.395-2.472-1.448-4.456-2.854-5.377-2.594-1.7-34.653-12.58-35.265-11.968-1.401 1.401 2.46 6.465 12.66 16.604 12.055 11.982 16.759 15.05 31.61 20.609 7.326 2.742 17.188 3.08 21.707.743zm8.793-28.303c0-3.22-18.145-22.203-30.965-32.393-11.49-9.134-12.34-9.404-21.172-6.736-10.796 3.26-30.31 13.025-28.79 14.406 1.078.98 76.688 25.591 78.677 25.611 1.238.012 2.25-.387 2.25-.888zM46.014 21.6c15.632-1.885 31.243-8.002 39.333-15.412 6.626-6.07 4.422-8.996-6.31-8.375-5.623.325-6.44.991-7.53 6.145-.704 3.329-4.828 7.453-8.331 8.332C57.47 13.721 50.988 7.701 50.988.973v-3.352H9.628c-43.132 0-50.64.381-50.64 2.57 0 1.574 6.848 7.21 13 10.698 14.87 8.431 50.354 13.565 74.026 10.71zm48.474-36.905c1.558-.613.12-1.361-6.5-3.383-16.928-5.17-66.067-18.69-67.93-18.69-3.597 0-26.884 9.146-40.727 15.996l-13.843 6.85 63.5.007c34.925.004 64.4-.347 65.5-.78zm6.487-11.823c-.02-1.184-13.827-9.835-20.987-13.151-8.703-4.03-24.381-6.424-29.418-4.492-4.27 1.639-1.038 3.127 19.278 8.878 8.602 2.435 18.79 5.539 22.64 6.897 7.892 2.784 8.505 2.919 8.487 1.868z" style="fill:#060606" transform="translate(383.637 65.257)"/></svg>